<?xml version="1.0" encoding="UTF-8"?><svg id="_레이어_2" xmlns="http://www.w3.org/2000/svg" viewBox="0 0 654.7 654.7"><defs><style>.cls-1{fill:#9e4be0;}</style></defs><g id="_레이어_2-2"><g><polygon class="cls-1" points="184.27 211.99 122.73 291.4 200.9 257.6 184.27 211.99"/><polygon class="cls-1" points="272.91 461.64 223.05 320.21 253.13 307.37 324.48 505.62 336.34 516.2 527.19 155 119.38 328.64 272.91 461.64"/><path class="cls-1" d="m554.7,0H100C44.77,0,0,44.77,0,100v454.7c0,55.23,44.77,100,100,100h454.7c55.23,0,100-44.77,100-100V100c0-55.23-44.77-100-100-100Zm-208.59,566.99L55.65,321.8l140-177.3,36.12,101.1,367.28-157.9-252.94,479.29Z"/></g></g></svg>